<svg width="260" height="261" viewBox="0 0 260 261" fill="none" xmlns="http://www.w3.org/2000/svg">
<path d="M260 199.348H0V199.478H260V199.348Z" fill="#EBEBEB"/>
<path d="M123.24 176.156H22.8332C22.0466 176.154 21.2927 175.841 20.737 175.284C20.1813 174.727 19.8692 173.973 19.8692 173.186V32.0428C19.876 31.2607 20.1912 30.513 20.7462 29.9619C21.3011 29.4108 22.0511 29.1009 22.8332 29.0996H123.24C124.027 29.0996 124.783 29.4124 125.34 29.9693C125.896 30.5261 126.209 31.2813 126.209 32.0688V173.186C126.209 173.974 125.896 174.729 125.34 175.286C124.783 175.843 124.027 176.156 123.24 176.156ZM22.8332 29.2036C22.0811 29.205 21.3603 29.5047 20.8289 30.037C20.2976 30.5693 19.9992 31.2907 19.9992 32.0428V173.186C19.9992 173.939 20.2976 174.66 20.8289 175.192C21.3603 175.725 22.0811 176.024 22.8332 176.026H123.24C123.993 176.024 124.714 175.725 125.246 175.193C125.778 174.66 126.078 173.939 126.079 173.186V32.0428C126.078 31.2902 125.778 30.5689 125.246 30.0367C124.714 29.5046 123.993 29.205 123.24 29.2036H22.8332Z" fill="#EBEBEB"/>
<path d="M235.721 176.156H135.309C134.522 176.154 133.768 175.841 133.211 175.284C132.655 174.728 132.341 173.973 132.34 173.186V32.0428C132.348 31.2603 132.664 30.5125 133.22 29.9616C133.776 29.4106 134.527 29.1009 135.309 29.0996H235.721C236.502 29.1023 237.251 29.4128 237.805 29.9637C238.359 30.5146 238.673 31.2616 238.68 32.0428V173.186C238.68 173.972 238.369 174.726 237.814 175.282C237.259 175.839 236.507 176.153 235.721 176.156ZM135.309 29.2036C134.557 29.205 133.835 29.5046 133.303 30.0367C132.771 30.5689 132.471 31.2902 132.47 32.0428V173.186C132.471 173.939 132.771 174.66 133.303 175.193C133.835 175.725 134.557 176.024 135.309 176.026H235.721C236.474 176.024 237.195 175.725 237.727 175.193C238.259 174.66 238.559 173.939 238.56 173.186V32.0428C238.559 31.2902 238.259 30.5689 237.727 30.0367C237.195 29.5046 236.474 29.205 235.721 29.2036H135.309Z" fill="#EBEBEB"/>
<path d="M40.1856 204.298H26.6656V204.428H40.1856V204.298Z" fill="#EBEBEB"/>
<path d="M98.8936 202.889H75.478V203.019H98.8936V202.889Z" fill="#EBEBEB"/>
<path d="M72.3164 209.129H40.7056V209.259H72.3164V209.129Z" fill="#EBEBEB"/>
<path d="M233.334 208.255H223.335V208.385H233.334V208.255Z" fill="#EBEBEB"/>
<path d="M218.702 208.255H189.951V208.385H218.702V208.255Z" fill="#EBEBEB"/>
<path d="M172.39 206.061H133.666V206.191H172.39V206.061Z" fill="#EBEBEB"/>
<path d="M99.2316 112.528L92.6536 199.368H156.094L162.672 112.528H99.2316ZM139.121 173.888C138.814 177.355 137.233 180.584 134.685 182.953C132.136 185.323 128.799 186.663 125.32 186.717C123.673 186.742 122.038 186.42 120.524 185.772C119.009 185.123 117.648 184.162 116.53 182.952C115.412 181.742 114.561 180.31 114.034 178.749C113.506 177.188 113.314 175.534 113.469 173.894L115.783 143.37C116.09 139.904 117.67 136.675 120.217 134.306C122.765 131.937 126.1 130.596 129.579 130.541C131.227 130.515 132.863 130.836 134.379 131.485C135.894 132.134 137.256 133.094 138.376 134.305C139.495 135.516 140.347 136.949 140.875 138.511C141.403 140.072 141.595 141.728 141.44 143.37L139.121 173.888Z" fill="#E6E6E6"/>
<path d="M176.218 199.348H83.72L84.2556 193.648H176.748L176.218 199.348Z" fill="#E6E6E6"/>
<path d="M211.754 167.113H219.96C220.07 167.113 220.179 167.091 220.28 167.047C220.381 167.004 220.472 166.94 220.547 166.861C220.623 166.781 220.681 166.686 220.719 166.583C220.756 166.48 220.772 166.37 220.766 166.26L220.735 165.678C220.722 165.45 220.623 165.236 220.457 165.079C220.292 164.921 220.074 164.832 219.846 164.83H211.64C211.53 164.829 211.421 164.851 211.32 164.894C211.219 164.936 211.127 164.999 211.051 165.079C210.975 165.158 210.917 165.252 210.878 165.355C210.84 165.458 210.823 165.568 210.829 165.678L210.86 166.26C210.873 166.489 210.973 166.705 211.139 166.863C211.305 167.021 211.525 167.111 211.754 167.113Z" fill="#E0E0E0"/>
<path d="M198.063 167.113H206.253C206.363 167.114 206.472 167.092 206.573 167.049C206.675 167.006 206.766 166.942 206.842 166.862C206.917 166.782 206.976 166.687 207.013 166.584C207.05 166.48 207.066 166.37 207.059 166.26L207.028 165.678C207.014 165.45 206.915 165.236 206.75 165.079C206.585 164.921 206.366 164.832 206.138 164.83H197.948C197.839 164.829 197.73 164.851 197.628 164.894C197.527 164.936 197.436 164.999 197.36 165.079C197.284 165.158 197.225 165.252 197.187 165.355C197.148 165.458 197.132 165.568 197.137 165.678L197.168 166.26C197.183 166.489 197.283 166.704 197.449 166.862C197.614 167.02 197.834 167.109 198.063 167.113Z" fill="#E0E0E0"/>
<path d="M226.32 166.468H35.152C34.0776 166.457 33.0474 166.038 32.2696 165.297C31.4917 164.556 31.0239 163.547 30.9608 162.474L25.2044 47.6478C25.1722 47.1324 25.2466 46.6158 25.4231 46.1305C25.5996 45.6451 25.8744 45.2014 26.2302 44.8271C26.586 44.4527 27.0152 44.1558 27.4909 43.9549C27.9667 43.754 28.4788 43.6534 28.9952 43.6594H220.163C221.237 43.6694 222.267 44.0868 223.045 44.8272C223.823 45.5676 224.291 46.5757 224.354 47.6478L230.11 162.474C230.143 162.99 230.068 163.507 229.892 163.992C229.715 164.478 229.441 164.922 229.085 165.297C228.729 165.671 228.3 165.969 227.824 166.17C227.348 166.372 226.836 166.473 226.32 166.468Z" fill="#E0E0E0"/>
<path d="M228.66 166.468H37.4972C36.419 166.461 35.3838 166.044 34.6009 165.303C33.818 164.561 33.3459 163.55 33.28 162.474L27.56 47.6477C27.5278 47.1332 27.602 46.6175 27.7779 46.1329C27.9537 45.6482 28.2275 45.205 28.5822 44.8308C28.9369 44.4566 29.3648 44.1595 29.8393 43.958C30.3139 43.7564 30.8248 43.6548 31.3404 43.6593H222.503C223.581 43.6652 224.616 44.0805 225.399 44.821C226.182 45.5616 226.654 46.572 226.72 47.6477L232.44 162.474C232.472 162.989 232.398 163.505 232.222 163.99C232.046 164.475 231.773 164.918 231.418 165.293C231.063 165.667 230.636 165.965 230.161 166.167C229.686 166.369 229.175 166.472 228.66 166.468Z" fill="#E6E6E6"/>
<path d="M38.6152 158.455L33.28 51.6732C33.2607 51.3502 33.3081 51.0267 33.4191 50.7229C33.53 50.419 33.7023 50.1411 33.9251 49.9066C34.148 49.672 34.4166 49.4858 34.7145 49.3594C35.0123 49.2331 35.3329 49.1692 35.6564 49.172H218.759C219.432 49.1775 220.078 49.439 220.566 49.9035C221.054 50.3681 221.347 51.0007 221.385 51.6732L226.72 158.455C226.74 158.778 226.693 159.101 226.583 159.405C226.473 159.709 226.301 159.987 226.078 160.221C225.856 160.456 225.588 160.642 225.29 160.769C224.993 160.895 224.672 160.959 224.349 160.956H41.2412C40.5681 160.95 39.9226 160.688 39.4352 160.223C38.9477 159.759 38.6547 159.127 38.6152 158.455Z" fill="#F5F5F5"/>
<path d="M44.5432 54.6319C44.5618 54.9162 44.5217 55.2013 44.4255 55.4694C44.3293 55.7376 44.179 55.9832 43.984 56.1909C43.7889 56.3986 43.5533 56.564 43.2917 56.6769C43.0301 56.7897 42.7481 56.8477 42.4632 56.8471C41.8675 56.8402 41.2964 56.6079 40.8651 56.1969C40.4338 55.7858 40.1743 55.2266 40.1388 54.6319C40.1211 54.348 40.1617 54.0635 40.2582 53.7959C40.3548 53.5284 40.5052 53.2834 40.7001 53.0763C40.8951 52.8692 41.1304 52.7042 41.3916 52.5917C41.6529 52.4791 41.9344 52.4213 42.2188 52.4219C42.8145 52.4262 43.3862 52.657 43.8179 53.0674C44.2496 53.4779 44.5089 54.0372 44.5432 54.6319Z" fill="white"/>
<path d="M54.5636 54.6319C54.5821 54.9162 54.5421 55.2013 54.4458 55.4694C54.3496 55.7376 54.1994 55.9832 54.0043 56.1909C53.8093 56.3986 53.5737 56.564 53.3121 56.6769C53.0505 56.7897 52.7685 56.8477 52.4836 56.8471C51.8879 56.8402 51.3168 56.6079 50.8855 56.1969C50.4542 55.7858 50.1947 55.2266 50.1592 54.6319C50.1414 54.348 50.1821 54.0635 50.2786 53.7959C50.3752 53.5284 50.5256 53.2834 50.7205 53.0763C50.9154 52.8692 51.1508 52.7042 51.412 52.5917C51.6732 52.4791 51.9548 52.4213 52.2392 52.4219C52.8349 52.4262 53.4066 52.657 53.8383 53.0674C54.27 53.4779 54.5293 54.0372 54.5636 54.6319Z" fill="white"/>
<path d="M64.5892 54.6319C64.6077 54.9162 64.5676 55.2013 64.4714 55.4694C64.3752 55.7376 64.2249 55.9832 64.0299 56.1909C63.8349 56.3986 63.5993 56.564 63.3377 56.6769C63.0761 56.7897 62.7941 56.8477 62.5092 56.8471C61.9136 56.8414 61.3425 56.6093 60.9117 56.1979C60.481 55.7865 60.223 55.2266 60.19 54.6319C60.1722 54.348 60.2128 54.0635 60.3094 53.7959C60.4059 53.5284 60.5563 53.2834 60.7513 53.0763C60.9462 52.8692 61.1816 52.7042 61.4428 52.5917C61.704 52.4791 61.9855 52.4213 62.27 52.4219C62.8644 52.4287 63.4341 52.6605 63.8644 53.0706C64.2947 53.4806 64.5537 54.0385 64.5892 54.6319Z" fill="white"/>
<g opacity="0.6">
<path d="M57.6576 160.956H84.0476L108.176 49.1719H81.7856L57.6576 160.956Z" fill="white"/>
<path d="M171.226 160.956H177.908L202.036 49.1719H195.354L171.226 160.956Z" fill="white"/>
<path d="M89.9132 160.956H127.353L151.481 49.1719H114.041L89.9132 160.956Z" fill="white"/>
</g>
<path d="M130 222.831C185.683 222.831 230.823 220.196 230.823 216.945C230.823 213.694 185.683 211.059 130 211.059C74.3171 211.059 29.1772 213.694 29.1772 216.945C29.1772 220.196 74.3171 222.831 130 222.831Z" fill="#F5F5F5"/>
<path d="M187.512 137.285H187.325C173.472 136.152 163.925 124.285 163.54 123.807C163.185 123.322 163.032 122.718 163.113 122.123C163.193 121.528 163.501 120.987 163.972 120.613C164.443 120.24 165.04 120.064 165.638 120.121C166.236 120.178 166.789 120.465 167.18 120.921C167.289 121.061 175.448 131.118 186.748 132.553C190.388 128.913 193.508 119.304 193.159 116.397C193.159 116.366 193.159 116.34 193.159 116.314C193.086 115.378 192.91 112.154 193.83 110.256C194.133 109.768 194.606 109.409 195.158 109.25C195.71 109.09 196.302 109.141 196.819 109.391C197.335 109.642 197.741 110.075 197.958 110.607C198.174 111.14 198.185 111.733 197.99 112.273C197.761 112.752 197.652 114.473 197.761 115.913C198.281 120.697 194.121 132.772 188.921 136.812C188.516 137.12 188.021 137.286 187.512 137.285Z" fill="#263238"/>
<path d="M77.3864 124.687C72.6013 124.629 67.8815 123.568 63.532 121.572C59.1825 119.576 55.3 116.691 52.1352 113.101C51.7778 112.703 51.5691 112.193 51.5445 111.659C51.5198 111.124 51.6808 110.598 52 110.168C55.7544 105.119 62.4 93.1954 63.44 89.311C62.9466 88.3743 62.2008 87.5944 61.2872 87.0594C60.9218 86.8891 60.6073 86.6263 60.3747 86.2971C60.1421 85.9678 59.9996 85.5835 59.9612 85.1822L59.5868 81.3758C59.5505 80.7758 59.7481 80.1851 60.138 79.7277C60.5279 79.2703 61.0799 78.9817 61.678 78.9224C62.2761 78.8632 62.874 79.038 63.346 79.4102C63.818 79.7823 64.1275 80.3228 64.2096 80.9182L64.4696 83.565C66.0067 84.7455 67.2241 86.2917 68.0108 88.063C68.1668 88.4338 68.2241 88.8387 68.1772 89.2382C67.6988 93.3618 61.0064 105.306 56.888 111.343C66.5028 120.927 77.9948 120.053 78.4992 120.007C79.1051 119.965 79.7033 120.161 80.1659 120.555C80.6285 120.948 80.9187 121.507 80.9745 122.112C81.0302 122.717 80.847 123.32 80.4641 123.791C80.0812 124.262 79.529 124.565 78.9256 124.635C78.7904 124.645 78.2548 124.687 77.3864 124.687Z" fill="#263238"/>
<path d="M152.292 216.867H146.052C145.694 216.867 145.341 216.784 145.02 216.626C144.699 216.467 144.419 216.236 144.202 215.951C143.985 215.666 143.837 215.335 143.769 214.983C143.702 214.631 143.716 214.269 143.811 213.924C145.439 208.079 146.24 203.321 146.838 195.875C144.633 185.475 142.558 176.005 142.537 175.912C142.424 175.317 142.548 174.702 142.882 174.197C143.215 173.692 143.733 173.337 144.324 173.208C144.915 173.079 145.534 173.185 146.048 173.504C146.562 173.824 146.931 174.331 147.077 174.919C147.077 175.012 149.219 184.726 151.45 195.24C151.498 195.459 151.512 195.683 151.492 195.906C150.972 202.593 150.29 207.216 149.063 212.223H152.277C152.874 212.252 153.437 212.509 153.849 212.941C154.261 213.373 154.491 213.948 154.491 214.545C154.491 215.143 154.261 215.717 153.849 216.149C153.437 216.582 152.874 216.839 152.277 216.867H152.292Z" fill="#263238"/>
<path d="M104.166 216.866H100.651C100.319 216.867 99.9904 216.797 99.6879 216.66C99.3853 216.523 99.1158 216.322 98.8978 216.071C98.6797 215.821 98.5181 215.526 98.4241 215.207C98.3301 214.889 98.3057 214.554 98.3528 214.225C98.9508 209.961 101.993 202.197 105.269 194.392C106.428 184.096 107.375 175.256 107.385 175.152C107.411 174.842 107.499 174.54 107.643 174.265C107.787 173.989 107.985 173.746 108.226 173.548C108.466 173.351 108.743 173.204 109.042 173.115C109.34 173.027 109.653 172.999 109.962 173.034C110.271 173.069 110.57 173.165 110.841 173.318C111.112 173.47 111.35 173.676 111.54 173.921C111.73 174.167 111.869 174.449 111.949 174.75C112.028 175.05 112.047 175.364 112.003 175.672C112.003 175.76 111.025 184.803 109.845 195.25C109.821 195.468 109.765 195.682 109.678 195.884C107.375 201.412 104.744 207.922 103.542 212.233H104.166C104.481 212.218 104.794 212.267 105.089 212.377C105.384 212.487 105.653 212.656 105.881 212.873C106.108 213.09 106.289 213.351 106.413 213.64C106.537 213.929 106.601 214.24 106.601 214.555C106.601 214.869 106.537 215.181 106.413 215.47C106.289 215.759 106.108 216.02 105.881 216.237C105.653 216.454 105.384 216.623 105.089 216.733C104.794 216.843 104.481 216.892 104.166 216.877V216.866Z" fill="#263238"/>
<path d="M106.189 58.2197L79.118 85.2961C77.7556 115.305 77.8648 146.828 79.118 179.51H168.641C166.868 137.338 166.702 96.7413 168.641 58.2197H106.189Z" fill="white"/>
<path d="M168.641 179.967H79.1181C78.9975 179.967 78.8815 179.921 78.7943 179.838C78.7071 179.754 78.6554 179.64 78.6501 179.52C77.3553 145.58 77.3553 113.86 78.6501 85.2596C78.6571 85.1434 78.7071 85.0341 78.7905 84.9528L105.862 57.8764C105.905 57.8335 105.956 57.7994 106.012 57.7762C106.068 57.753 106.128 57.7411 106.189 57.7412H168.641C168.704 57.7414 168.767 57.7544 168.825 57.7794C168.883 57.8044 168.936 57.841 168.979 57.8868C169.023 57.9322 169.056 57.9862 169.078 58.0453C169.099 58.1044 169.108 58.1673 169.104 58.23C167.237 95.3268 167.237 134.987 169.104 179.478C169.106 179.541 169.096 179.603 169.073 179.661C169.051 179.719 169.017 179.772 168.974 179.816C168.932 179.864 168.881 179.901 168.824 179.927C168.766 179.953 168.704 179.967 168.641 179.967ZM79.5601 179.036H168.158C166.317 134.909 166.312 95.5296 168.158 58.672H106.382L79.5601 85.4832C78.2861 113.896 78.2861 145.366 79.5601 179.036Z" fill="#263238"/>
<path d="M152.589 166.619H142.823C142.731 166.619 142.642 166.583 142.577 166.517C142.512 166.452 142.475 166.363 142.475 166.271C142.475 166.225 142.484 166.18 142.501 166.138C142.519 166.096 142.545 166.058 142.577 166.026C142.61 165.994 142.648 165.969 142.69 165.952C142.733 165.935 142.778 165.927 142.823 165.928H152.589C152.634 165.927 152.68 165.935 152.722 165.952C152.764 165.969 152.802 165.994 152.835 166.026C152.867 166.058 152.893 166.096 152.911 166.138C152.928 166.18 152.937 166.225 152.937 166.271C152.937 166.317 152.928 166.362 152.911 166.404C152.893 166.447 152.868 166.485 152.835 166.517C152.803 166.55 152.764 166.575 152.722 166.593C152.68 166.61 152.635 166.619 152.589 166.619Z" fill="#CB282A"/>
<path d="M138.778 166.619H95.16C95.0676 166.619 94.979 166.583 94.9137 166.517C94.8484 166.452 94.8116 166.363 94.8116 166.271C94.8116 166.225 94.8207 166.18 94.8383 166.138C94.8558 166.096 94.8816 166.058 94.914 166.026C94.9464 165.994 94.9849 165.969 95.0271 165.952C95.0693 165.935 95.1145 165.927 95.16 165.928H138.767C138.813 165.927 138.858 165.935 138.9 165.952C138.942 165.969 138.981 165.994 139.013 166.026C139.046 166.058 139.071 166.096 139.089 166.138C139.107 166.18 139.116 166.225 139.116 166.271C139.116 166.362 139.08 166.449 139.017 166.514C138.954 166.579 138.868 166.617 138.778 166.619Z" fill="#CB282A"/>
<path d="M111.426 114.479C111.322 112.212 110.037 110.423 108.55 110.475C107.063 110.527 105.95 112.404 106.044 114.671C106.137 116.938 107.432 118.727 108.919 118.67C110.406 118.613 111.53 116.741 111.426 114.479Z" fill="#CB282A"/>
<path d="M142.818 113.767C142.714 111.505 141.43 109.716 139.942 109.768C138.455 109.82 137.342 111.697 137.436 113.964C137.53 116.231 138.83 118.02 140.312 117.963C141.794 117.906 142.922 116.034 142.818 113.767Z" fill="#CB282A"/>
<path d="M119.262 123.74C121.661 122.844 124.217 122.441 126.775 122.558C129.333 122.674 131.842 123.306 134.15 124.416C134.226 124.458 134.294 124.515 134.348 124.584C134.402 124.652 134.442 124.731 134.466 124.815C134.49 124.899 134.497 124.987 134.486 125.074C134.475 125.161 134.448 125.244 134.404 125.32C134.316 125.473 134.171 125.586 134.001 125.633C133.831 125.681 133.649 125.66 133.494 125.575C133.416 125.534 126.006 121.54 117.161 126.095C117.003 126.175 116.821 126.19 116.652 126.138C116.483 126.086 116.341 125.97 116.256 125.815C116.216 125.737 116.191 125.652 116.184 125.565C116.176 125.478 116.186 125.391 116.213 125.308C116.239 125.224 116.282 125.147 116.339 125.081C116.395 125.014 116.465 124.96 116.542 124.92C117.421 124.465 118.33 124.071 119.262 123.74Z" fill="#CB282A"/>
<path d="M106.933 93.2368C107.164 93.2431 107.389 93.3075 107.588 93.424C107.892 93.6039 108.113 93.8965 108.202 94.2383C108.292 94.58 108.243 94.9432 108.066 95.2492C107.032 97.0935 105.567 98.661 103.797 99.8188C102.028 100.977 100.005 101.69 97.9005 101.9C97.5466 101.914 97.2015 101.788 96.9397 101.55C96.6779 101.312 96.5205 100.98 96.5017 100.626C96.494 100.452 96.5207 100.278 96.5804 100.114C96.64 99.9502 96.7314 99.7997 96.8492 99.6712C96.9671 99.5428 97.1091 99.4388 97.2672 99.3653C97.4252 99.2918 97.5963 99.2501 97.7705 99.2428C97.9733 99.2428 102.773 98.9412 105.758 93.9024C105.875 93.6952 106.046 93.5238 106.253 93.4065C106.46 93.2892 106.695 93.2306 106.933 93.2368Z" fill="#CB282A"/>
<path d="M138.346 92.4725C138.563 92.4297 138.788 92.4415 138.999 92.5068C139.211 92.5722 139.402 92.689 139.558 92.8469C143.718 97.0069 148.47 96.1697 148.668 96.1333C149.012 96.0714 149.367 96.1451 149.658 96.339C149.948 96.5329 150.153 96.8319 150.228 97.1733C150.263 97.3441 150.264 97.52 150.23 97.6911C150.197 97.8621 150.129 98.0248 150.033 98.1698C149.936 98.3149 149.812 98.4393 149.667 98.536C149.522 98.6327 149.359 98.6998 149.188 98.7333C148.928 98.7801 142.875 99.9345 137.639 94.7033C137.468 94.534 137.346 94.3213 137.287 94.088C137.228 93.8548 137.234 93.6098 137.305 93.3797C137.375 93.1496 137.506 92.9429 137.685 92.7821C137.864 92.6213 138.084 92.5125 138.32 92.4673L138.346 92.4725Z" fill="#CB282A"/>
<path opacity="0.2" d="M167.294 107.027L163.493 107.38C162.836 107.442 162.178 107.261 161.644 106.873C161.11 106.484 160.736 105.914 160.592 105.269L155.324 81.6716C155.172 80.9864 155.291 80.2689 155.657 79.6697C156.022 79.0705 156.606 78.6362 157.284 78.458L167.471 75.7852L167.294 107.027Z" fill="black"/>
<path opacity="0.2" d="M108.68 87.6982C106.033 80.4754 103.386 68.9158 106.179 58.209L79.1077 85.2854C86.7673 87.8594 98.9665 88.9566 108.68 87.6982Z" fill="black"/>
<path d="M106.189 85.2854C103.22 76.5182 104.432 64.5998 106.189 58.209L79.118 85.2854C87.3132 86.7778 96.4704 86.5386 106.189 85.2854Z" fill="white"/>
<path d="M91.52 86.7779C87.3371 86.809 83.16 86.4609 79.04 85.7379C78.9564 85.7242 78.8782 85.6875 78.8142 85.6319C78.7502 85.5764 78.7029 85.5041 78.6776 85.4232C78.6522 85.3423 78.6498 85.256 78.6707 85.1739C78.6915 85.0917 78.7348 85.0169 78.7956 84.9579L105.867 57.8815C105.939 57.8081 106.034 57.7609 106.136 57.7472C106.238 57.7336 106.341 57.7544 106.43 57.8063C106.519 57.8582 106.588 57.9383 106.626 58.0338C106.665 58.1294 106.67 58.235 106.642 58.3339C105.009 64.2827 103.652 76.3259 106.642 85.1347C106.662 85.2002 106.669 85.2692 106.661 85.3374C106.653 85.4055 106.63 85.4712 106.595 85.5299C106.559 85.5883 106.511 85.6379 106.453 85.6748C106.395 85.7117 106.33 85.7351 106.262 85.7431C101.375 86.4028 96.4511 86.7484 91.52 86.7779ZM80.08 84.9787C87.2768 86.1695 95.6332 86.1435 105.56 84.8955C103.111 77.1267 103.667 66.8463 105.31 59.7275L80.08 84.9787Z" fill="#263238"/>
<path d="M199.212 124.837C199.041 124.837 198.875 124.78 198.739 124.675C198.604 124.571 198.507 124.425 198.463 124.259L188.926 87.9218C188.874 87.7225 188.903 87.5106 189.007 87.3326C189.111 87.1547 189.281 87.0252 189.48 86.9728C189.68 86.9204 189.891 86.9493 190.069 87.0532C190.247 87.157 190.377 87.3273 190.429 87.5266L199.966 123.864C199.992 123.963 199.998 124.066 199.984 124.167C199.97 124.268 199.936 124.365 199.884 124.453C199.833 124.541 199.764 124.618 199.683 124.679C199.601 124.74 199.508 124.785 199.41 124.811C199.346 124.83 199.279 124.839 199.212 124.837Z" fill="#263238"/>
<path d="M216.975 72.6386L216.471 72.7686L217.187 75.5478L217.691 75.4178L216.975 72.6386Z" fill="#CB282A"/>
<path d="M215.337 68.6665L213.335 61.0381C213.063 60.0054 212.392 59.1227 211.47 58.5837C210.548 58.0447 209.45 57.8932 208.416 58.1625L203.18 59.5353L203.05 59.0153L208.286 57.6373C209.452 57.3347 210.69 57.5062 211.73 58.1143C212.77 58.7224 213.526 59.7176 213.834 60.8821L215.842 68.5157L215.337 68.6665Z" fill="#CB282A"/>
<path d="M208.75 59.4337L159.172 72.4404C157.716 72.8223 156.846 74.3118 157.227 75.7674L163.502 99.6841C163.884 101.14 165.373 102.01 166.829 101.628L216.408 88.6216C217.863 88.2397 218.734 86.7501 218.352 85.2945L212.077 61.3778C211.695 59.9222 210.206 59.0518 208.75 59.4337Z" fill="#CB282A"/>
<path d="M206.281 87.2947L175.001 95.5009C173.545 95.8828 172.675 97.3724 173.057 98.828L175.018 106.302C175.399 107.758 176.889 108.628 178.345 108.246L209.625 100.04C211.08 99.6583 211.951 98.1688 211.569 96.7132L209.608 89.2389C209.226 87.7833 207.737 86.9128 206.281 87.2947Z" fill="#CB282A"/>
<path d="M177.918 98.229L182.198 97.1162L182.484 98.2186L179.806 98.9154L180.019 99.737L182.52 99.0922L182.796 100.132L180.31 100.782L180.575 101.796L183.331 101.084L183.633 102.254L179.28 103.387L177.918 98.229Z" fill="white"/>
<path d="M184.501 102.035L183.154 96.8659L185.817 96.1743C186.195 96.0615 186.587 96.0054 186.982 96.0079C187.26 96.0226 187.526 96.1307 187.736 96.3147C187.943 96.5113 188.095 96.7587 188.177 97.0324C188.259 97.3061 188.268 97.5964 188.204 97.8747C188.137 98.1171 188.008 98.3377 187.829 98.5143C187.676 98.6581 187.5 98.7758 187.309 98.8627C187.454 98.8562 187.598 98.8786 187.734 98.9286C187.87 98.9786 187.994 99.0552 188.1 99.1539C188.21 99.2323 188.315 99.3192 188.412 99.4139L189.571 100.709L187.767 101.182L186.514 99.8195C186.408 99.6857 186.275 99.5758 186.124 99.4971C185.985 99.4529 185.836 99.4529 185.697 99.4971L185.557 99.5335L186.103 101.613L184.501 102.035ZM185.302 98.5403L185.978 98.3687C186.118 98.3202 186.254 98.2593 186.384 98.1867C186.482 98.1411 186.558 98.059 186.597 97.9579C186.65 97.8373 186.656 97.7009 186.612 97.5763C186.569 97.4518 186.48 97.3484 186.363 97.2871C186.158 97.2221 185.938 97.2221 185.734 97.2871L185.032 97.4691L185.302 98.5403Z" fill="white"/>
<path d="M190.112 100.574L188.76 95.4049L191.422 94.7133C191.801 94.6029 192.193 94.5469 192.587 94.5469C192.864 94.5619 193.128 94.67 193.336 94.8537C193.568 95.0562 193.728 95.3278 193.794 95.6285C193.866 95.8869 193.866 96.1604 193.794 96.4189C193.726 96.658 193.599 96.8761 193.424 97.0533C193.269 97.196 193.094 97.3151 192.904 97.4069C193.062 97.4085 193.218 97.4348 193.367 97.4849C193.484 97.5422 193.593 97.612 193.695 97.6929C193.804 97.7709 193.907 97.8579 194.002 97.9529L195.166 99.2529L193.362 99.7209L192.098 98.3637C191.992 98.2283 191.857 98.1182 191.703 98.0413C191.566 97.9971 191.419 97.9971 191.282 98.0413L191.142 98.0777L191.688 100.158L190.112 100.574ZM190.918 97.0845L191.594 96.9077C191.732 96.8578 191.866 96.797 191.994 96.7257C192.044 96.7039 192.089 96.6724 192.127 96.6331C192.164 96.5939 192.193 96.5476 192.213 96.4969C192.265 96.3768 192.269 96.2417 192.226 96.1183C192.183 95.995 192.094 95.8925 191.979 95.8313C191.773 95.7611 191.55 95.7611 191.344 95.8313L190.648 96.0133L190.918 97.0845Z" fill="white"/>
<path d="M194.714 96.6213C194.585 96.2712 194.535 95.8967 194.568 95.525C194.601 95.1532 194.715 94.7933 194.904 94.4711C195.092 94.149 195.35 93.8725 195.658 93.6617C195.965 93.4509 196.316 93.3109 196.685 93.2517C197.04 93.1355 197.415 93.0912 197.787 93.1216C198.159 93.152 198.522 93.2563 198.853 93.4285C199.161 93.6257 199.427 93.8829 199.633 94.1849C199.839 94.4869 199.983 94.8274 200.054 95.1861C200.205 95.6923 200.233 96.2268 200.138 96.7461C200.039 97.1804 199.813 97.5752 199.488 97.8797C199.104 98.2233 198.638 98.4631 198.136 98.5765C197.643 98.7225 197.124 98.7545 196.617 98.6701C196.176 98.5804 195.771 98.3592 195.458 98.0357C195.09 97.6379 194.833 97.15 194.714 96.6213ZM196.31 96.2157C196.378 96.6194 196.584 96.9869 196.893 97.2557C197.023 97.3374 197.168 97.3917 197.32 97.4155C197.472 97.4392 197.627 97.4319 197.775 97.394C197.924 97.3561 198.064 97.2883 198.186 97.1948C198.307 97.1013 198.409 96.9841 198.484 96.8501C198.615 96.4337 198.604 95.9856 198.453 95.5761C198.387 95.1889 198.184 94.8382 197.881 94.5881C197.752 94.5021 197.606 94.4458 197.454 94.4234C197.301 94.4009 197.145 94.4128 196.997 94.4581C196.848 94.4909 196.709 94.5571 196.59 94.6517C196.472 94.7463 196.376 94.8669 196.31 95.0041C196.171 95.3959 196.171 95.8239 196.31 96.2157Z" fill="white"/>
<path d="M201.62 97.5786L200.273 92.415L202.935 91.7234C203.312 91.6077 203.705 91.5515 204.1 91.557C204.379 91.5705 204.645 91.6787 204.854 91.8638C205.062 92.0597 205.215 92.3073 205.296 92.5814C205.377 92.8554 205.384 93.1461 205.317 93.4238C205.249 93.6645 205.122 93.8844 204.948 94.0634C204.795 94.2072 204.619 94.3249 204.428 94.4118C204.587 94.4173 204.744 94.4453 204.896 94.495C205.011 94.5495 205.119 94.6176 205.218 94.6978C205.329 94.776 205.431 94.8648 205.525 94.963L206.69 96.2578L204.885 96.731L203.622 95.3738C203.514 95.2387 203.379 95.1272 203.226 95.0462C203.089 95.0044 202.943 95.0044 202.805 95.0462L202.665 95.0826L203.211 97.1626L201.62 97.5786ZM202.42 94.0894L203.096 93.9178C203.236 93.867 203.371 93.8061 203.502 93.7358C203.599 93.6885 203.675 93.607 203.715 93.507C203.769 93.3864 203.774 93.25 203.731 93.1254C203.687 93.0009 203.598 92.8975 203.481 92.8362C203.277 92.7688 203.056 92.7688 202.852 92.8362L202.15 93.0182L202.42 94.0894Z" fill="white"/>
<path d="M165.467 85.5676L168.849 84.7874L169.095 85.8534L165.713 86.6336L165.467 85.5676ZM166.418 89.2063L165.159 89.4969L163.594 82.713L168.546 81.5707L168.79 82.627L165.097 83.4787L166.418 89.2063Z" fill="white"/>
<path d="M173.519 87.6399C172.944 87.7725 172.414 87.7757 171.929 87.6494C171.449 87.5152 171.043 87.2753 170.712 86.9299C170.387 86.583 170.165 86.1543 170.048 85.6439C169.928 85.127 169.936 84.6455 170.072 84.1992C170.212 83.745 170.456 83.3586 170.805 83.0401C171.159 82.72 171.595 82.5004 172.112 82.3812C172.616 82.265 173.09 82.2712 173.535 82.4C173.98 82.5287 174.362 82.7673 174.68 83.1157C174.999 83.4642 175.221 83.9097 175.346 84.4524C175.358 84.5041 175.368 84.563 175.376 84.6291C175.391 84.6937 175.402 84.7558 175.409 84.8155L171.097 85.8102L170.911 85.0059L174.584 84.1586L174.167 84.5202C174.105 84.2215 173.983 83.974 173.802 83.7776C173.621 83.5813 173.402 83.4446 173.146 83.3676C172.897 83.289 172.626 83.2833 172.336 83.3503C172.039 83.4189 171.792 83.5438 171.595 83.7252C171.406 83.9051 171.273 84.1263 171.197 84.3887C171.127 84.6431 171.127 84.9254 171.199 85.2355L171.243 85.4293C171.315 85.7395 171.449 85.9976 171.647 86.2039C171.844 86.4102 172.087 86.5481 172.375 86.6177C172.663 86.6873 172.975 86.6834 173.311 86.6059C173.602 86.5388 173.853 86.4332 174.065 86.2891C174.277 86.145 174.451 85.9552 174.587 85.7197L175.408 86.3161C175.238 86.6411 174.993 86.9189 174.672 87.1495C174.356 87.3721 173.971 87.5356 173.519 87.6399Z" fill="white"/>
<path d="M179.548 86.2493C178.973 86.3819 178.443 86.3851 177.958 86.2588C177.478 86.1246 177.072 85.8847 176.74 85.5393C176.415 85.1924 176.194 84.7637 176.076 84.2533C175.957 83.7364 175.965 83.2549 176.1 82.8086C176.241 82.3544 176.485 81.968 176.833 81.6495C177.188 81.3294 177.624 81.1098 178.141 80.9906C178.645 80.8744 179.119 80.8806 179.564 81.0094C180.009 81.1381 180.39 81.3767 180.709 81.7251C181.027 82.0736 181.249 82.5191 181.374 83.0618C181.386 83.1135 181.397 83.1724 181.405 83.2385C181.42 83.3031 181.431 83.3652 181.438 83.4249L177.125 84.4197L176.94 83.6153L180.613 82.768L180.196 83.1296C180.134 82.8309 180.012 82.5834 179.831 82.387C179.649 82.1907 179.431 82.054 179.175 81.977C178.925 81.8984 178.655 81.8927 178.364 81.9597C178.067 82.0283 177.82 82.1533 177.624 82.3346C177.434 82.5145 177.302 82.7357 177.226 82.9981C177.155 83.2525 177.156 83.5348 177.227 83.8449L177.272 84.0387C177.344 84.3489 177.478 84.607 177.675 84.8133C177.873 85.0196 178.115 85.1575 178.404 85.2271C178.692 85.2967 179.004 85.2928 179.34 85.2153C179.631 85.1482 179.882 85.0426 180.094 84.8985C180.305 84.7544 180.479 84.5646 180.615 84.3291L181.437 84.9255C181.267 85.2505 181.021 85.5283 180.7 85.7589C180.384 85.9815 180 86.145 179.548 86.2493Z" fill="white"/>
<path d="M185.334 84.9146C184.837 85.0293 184.362 85.0231 183.911 84.8958C183.465 84.7606 183.083 84.522 182.766 84.18C182.449 83.8381 182.229 83.399 182.105 82.8627C181.981 82.3265 181.987 81.8352 182.122 81.3889C182.258 80.9427 182.497 80.5642 182.84 80.2536C183.19 79.9416 183.614 79.7282 184.111 79.6134C184.544 79.5136 184.954 79.5211 185.341 79.6359C185.727 79.7443 186.065 79.9692 186.354 80.3107C186.644 80.6521 186.859 81.1265 186.999 81.7338C187.138 82.3347 187.156 82.8545 187.053 83.2933C186.948 83.7257 186.747 84.0783 186.449 84.3511C186.152 84.6239 185.78 84.8117 185.334 84.9146ZM185.24 83.8441C185.531 83.777 185.775 83.6528 185.971 83.4714C186.174 83.2885 186.315 83.0587 186.394 82.7819C186.479 82.5036 186.484 82.1997 186.408 81.8702C186.33 81.5342 186.193 81.2631 185.996 81.0568C185.803 80.8426 185.576 80.6977 185.314 80.6222C185.058 80.5451 184.784 80.5401 184.494 80.6072C184.203 80.6742 183.956 80.7992 183.753 80.9821C183.557 81.1634 183.416 81.3933 183.331 81.6716C183.25 81.9419 183.249 82.2451 183.326 82.581C183.402 82.9106 183.536 83.1824 183.729 83.3966C183.927 83.6094 184.155 83.7543 184.411 83.8313C184.673 83.9069 184.95 83.9111 185.24 83.8441ZM187.034 84.4511L186.752 83.23L186.483 81.8426L186.069 80.4888L185.327 77.2713L186.528 76.9941L188.187 84.185L187.034 84.4511Z" fill="white"/>
<path d="M192.666 83.2234C192.227 83.3247 191.813 83.318 191.426 83.2032C191.039 83.0883 190.701 82.8602 190.411 82.5187C190.126 82.1693 189.914 81.6942 189.776 81.0933C189.636 80.486 189.621 79.9654 189.732 79.5316C189.849 79.0962 190.058 78.7454 190.357 78.479C190.661 78.2047 191.023 78.0191 191.443 77.9223C191.953 77.8045 192.428 77.8108 192.866 77.941C193.311 78.0698 193.692 78.3052 194.009 78.6471C194.332 78.9876 194.556 79.4259 194.68 79.9622C194.803 80.4984 194.794 80.9904 194.653 81.4382C194.517 81.8845 194.279 82.2661 193.937 82.5832C193.6 82.8923 193.176 83.1057 192.666 83.2234ZM189.782 83.8173L188.123 76.6263L189.334 76.3469L190.076 79.5644L190.297 80.9629L190.653 82.3301L190.935 83.5512L189.782 83.8173ZM192.291 82.2177C192.582 82.1507 192.825 82.0265 193.022 81.8451C193.224 81.6622 193.365 81.4324 193.444 81.1556C193.523 80.8788 193.525 80.5756 193.449 80.2461C193.371 79.9101 193.237 79.6383 193.046 79.4305C192.854 79.2163 192.627 79.0714 192.364 78.9958C192.108 78.9188 191.835 78.9138 191.544 78.9808C191.254 79.0479 191.007 79.1729 190.804 79.3557C190.601 79.5386 190.46 79.7684 190.381 80.0452C190.301 80.3156 190.299 80.6188 190.377 80.9547C190.453 81.2842 190.587 81.5561 190.779 81.7703C190.972 81.9845 191.199 82.1294 191.461 82.205C191.724 82.2805 192 82.2848 192.291 82.2177Z" fill="white"/>
<path d="M199.548 81.5646L199.306 80.5179L199.187 80.3107L198.764 78.479C198.682 78.1237 198.513 77.8737 198.255 77.729C197.995 77.5779 197.649 77.5523 197.216 77.6521C196.925 77.7192 196.648 77.8307 196.385 77.9868C196.128 78.1413 195.921 78.3217 195.765 78.5279L195.086 77.7555C195.315 77.4783 195.608 77.244 195.965 77.0527C196.328 76.8534 196.716 76.7061 197.129 76.6107C197.879 76.4378 198.499 76.4854 198.989 76.7533C199.484 77.0133 199.819 77.518 199.992 78.2674L200.691 81.3008L199.548 81.5646ZM197.935 82.008C197.547 82.0974 197.193 82.111 196.873 82.0489C196.551 81.9803 196.282 81.8483 196.067 81.653C195.857 81.4497 195.717 81.1994 195.649 80.9022C195.582 80.6115 195.589 80.3342 195.671 80.0703C195.76 79.8049 195.947 79.5679 196.232 79.3592C196.517 79.1505 196.922 78.9858 197.445 78.865L198.947 78.5185L199.133 79.3229L197.718 79.6493C197.304 79.7447 197.042 79.8766 196.931 80.0451C196.819 80.2071 196.785 80.385 196.83 80.5788C196.88 80.7985 197.008 80.9528 197.212 81.0418C197.416 81.1308 197.674 81.1395 197.984 81.068C198.281 80.9994 198.53 80.8705 198.731 80.6811C198.939 80.4903 199.064 80.2505 199.106 79.9618L199.478 80.6417C199.431 80.9722 199.276 81.2564 199.011 81.4945C198.752 81.731 198.394 81.9022 197.935 82.008Z" fill="white"/>
<path d="M204.645 80.4602C204.103 80.5854 203.592 80.5841 203.113 80.4563C202.64 80.3206 202.237 80.08 201.906 79.7346C201.574 79.3891 201.35 78.9612 201.232 78.4508C201.113 77.9339 201.127 77.4509 201.275 77.0016C201.422 76.5459 201.679 76.1565 202.047 75.8335C202.421 75.509 202.88 75.2842 203.423 75.159C203.927 75.0428 204.393 75.0441 204.822 75.1629C205.256 75.2738 205.618 75.5032 205.909 75.8511L205.104 76.6084C204.893 76.3986 204.66 76.2617 204.407 76.1976C204.161 76.1319 203.908 76.1289 203.65 76.1885C203.353 76.2571 203.099 76.3835 202.89 76.5679C202.681 76.7523 202.537 76.9828 202.458 77.2597C202.377 77.53 202.376 77.8332 202.453 78.1691C202.531 78.5051 202.666 78.7802 202.858 78.9944C203.049 79.2022 203.279 79.3431 203.547 79.4172C203.816 79.4912 204.099 79.494 204.396 79.4254C204.655 79.3658 204.881 79.2525 205.073 79.0856C205.273 78.9171 205.422 78.6922 205.52 78.411L206.576 78.7391C206.465 79.1729 206.24 79.5412 205.902 79.8438C205.568 80.1385 205.149 80.3439 204.645 80.4602Z" fill="white"/>
<path d="M208.562 78.2707L208.24 76.7425L210.367 73.6185L211.821 73.2831L210.056 76.1195L209.539 76.8L208.562 78.2707ZM207.839 79.652L206.181 72.4611L207.392 72.1816L209.051 79.3726L207.839 79.652ZM211.745 78.7511L209.316 76.8514L209.858 75.7057L213.218 78.4114L211.745 78.7511Z" fill="white"/>
</svg>
