<svg width="21" height="36" viewBox="0 0 21 36" fill="none" xmlns="http://www.w3.org/2000/svg">
<g clip-path="url(#clip0_637_1679)">
<path d="M9.4825 6.01853C9.47598 6.20116 9.4645 6.39138 9.53492 6.56589C9.61107 6.75506 9.95169 6.93323 9.99915 7.09254C10.0584 7.29194 9.94699 7.43631 9.94438 7.60767C9.94125 7.81125 10.0777 8.0903 10.1755 7.7709L10.2086 7.90322H10.3398L10.3405 7.77169L10.5046 7.90348L10.5377 7.70592L10.7341 7.83772L10.7349 7.57387L10.931 7.77169L10.9323 7.50758C11.3496 7.82278 11.1047 7.30897 11.1224 7.07761C11.1637 6.54335 11.7794 6.80458 11.89 6.6534L11.8524 6.25278C12.5261 6.999 11.227 6.54414 11.1968 7.14756C11.1793 7.49683 11.2912 7.36085 11.1133 7.79317C11.0865 7.85894 11.1277 7.95641 11.1196 7.96244C11.1052 7.97344 11.0202 7.9627 10.9563 7.99624C10.9305 8.00986 10.9294 8.08113 10.9188 8.08532C10.8679 8.10497 10.8092 8.01641 10.7484 8.04864C10.731 8.05807 10.7411 8.16 10.6947 8.16681C10.5122 8.19432 10.1661 8.00724 10.2091 8.45922C10.2693 9.0878 11.1324 8.84832 11.5204 8.72648C12.5991 8.38717 12.3122 8.22996 12.5407 7.30792C12.6223 6.97909 12.8555 6.70109 12.7728 6.31907C12.8578 6.30073 12.8792 6.44326 12.8876 6.50038C12.9358 6.83236 12.8328 7.0763 12.7066 7.37473C13.4207 7.36818 13.9285 6.9631 14.0573 6.25566C14.6358 3.07818 9.59125 2.92883 9.4825 6.01853ZM9.71618 6.4506C9.45224 6.38667 9.52579 5.4945 10.0109 5.65852C9.9436 5.79844 9.90057 6.49488 9.71618 6.4506ZM10.5367 6.84677C10.4042 6.81533 10.3069 6.74773 10.2073 6.87716C9.99524 6.95027 10.0424 6.05417 10.1755 6.056C10.4073 6.25199 10.5763 6.53156 10.5367 6.84677ZM11.232 5.9263C11.1039 6.65288 10.7495 5.89041 10.4686 5.75599C10.4102 5.43397 11.0124 5.4083 11.177 5.61005C11.2255 5.66979 11.2463 5.84455 11.232 5.9263Z" fill="white"/>
<path d="M17.0995 16.468C15.8865 16.1499 15.6559 17.2863 14.7762 17.3497C14.3691 17.379 13.9583 17.2127 13.6566 16.9546C13.5731 16.8833 13.5327 16.7594 13.4724 16.7106C12.8825 16.2333 12.0641 15.8622 11.4966 16.561C10.5144 17.7713 11.2605 19.0413 12.7727 18.6692C12.6115 18.9291 12.1726 19.1073 12.479 19.4595C12.8817 19.9219 13.8201 19.4495 14.3141 19.5313C14.6575 19.5879 14.9768 20.0946 15.5031 20.1245C15.9337 20.1488 16.3061 19.8965 16.2625 19.427C16.2297 19.0701 15.8119 19.0345 15.7313 18.735C15.8168 18.6601 16.8833 18.8047 17.1128 18.7746C18.3211 18.616 18.1508 16.7437 17.0995 16.468ZM12.0977 17.7946C11.6765 17.5897 11.8427 17.1076 12.2294 17.0287C12.6381 16.9454 13.2184 17.4257 13.4946 17.711C13.4323 17.8061 13.3689 17.8033 13.2693 17.8135C12.9644 17.8452 12.3504 17.9175 12.0977 17.7946ZM13.7486 18.7442L13.8123 18.9567C12.9858 19.8045 12.6011 18.6268 13.7486 18.7442ZM15.5993 19.493C15.4011 19.7728 14.8234 19.2708 14.7733 19.0672L14.8511 18.9388C15.0879 18.8191 15.6577 19.2813 15.5993 19.493ZM17.1675 17.8669C16.691 18.1101 15.984 17.9901 15.5996 17.6128C16.0899 17.4781 17.2992 16.9307 17.1675 17.8669Z" fill="white"/>
<path d="M16.751 27.3217C16.0048 27.9608 14.254 30.5867 14.1017 31.5294C14.0326 31.957 14.6233 33.0014 13.9721 33.1212C13.4168 33.2234 13.2982 32.3857 12.8879 32.3176C12.6136 32.2717 11.8348 32.5804 11.9172 31.9817C11.9954 31.4139 13.0817 31.3816 13.1717 31.2386C13.4547 30.1297 13.8923 29.0455 14.4468 28.0449C14.6398 27.6964 15.7612 25.9592 16.0909 25.9561C16.2669 25.9935 16.3653 26.0936 16.3118 26.2825C16.2732 26.419 15.443 27.1472 15.272 27.3547C14.694 28.0553 14.2757 29.0256 13.9718 29.8792C13.868 30.1703 13.7282 30.5099 13.7249 30.8196C14.2637 30.064 14.6411 29.193 15.1509 28.4222C15.4676 27.9435 16.0262 27.3911 16.2682 26.9027C16.4307 26.5742 16.4284 26.0247 16.5825 25.8321C16.8331 25.5193 17.2069 25.7441 17.1109 26.1313C17.1688 26.1958 17.6935 25.8046 17.7705 26.232C17.8605 26.7316 17.082 27.0385 16.751 27.3217Z" fill="white"/>
<path d="M18.4275 19.0985C18.3955 19.4231 17.9127 19.8246 17.7651 20.2173C17.4751 20.989 17.1825 23.5025 17.3246 24.2982C17.3827 24.6239 17.8032 25.373 17.424 25.5543C17.0061 25.754 16.8163 25.3217 16.6924 25.3434C16.5294 25.372 16.2172 26.0734 15.934 25.6277C15.7178 25.2879 16.2769 24.778 16.3974 24.391C16.6749 23.4996 17.0377 21.2022 17.039 20.2789C17.0395 19.9267 16.3927 19.2982 16.9801 19.0325C17.1772 18.9431 17.3423 19.0652 17.443 19.0288C17.5536 18.9887 17.7283 18.6612 17.8809 18.6151C18.2684 18.4977 18.4659 18.7123 18.4275 19.0985Z" fill="white"/>
<path d="M11.4892 19.9227C11.0917 20.3715 10.6481 21.2985 10.3938 21.8603C10.1813 22.3293 9.50343 23.8943 9.55559 24.3096C9.59132 24.5939 9.85134 24.9924 9.53159 25.2526C9.05301 25.6422 8.91531 24.9807 8.83081 24.6392C8.72022 24.557 8.18427 24.8651 8.11776 24.433C8.05334 24.0133 8.42395 23.947 8.6472 23.6716C9.04728 23.178 10.188 21.0404 10.4079 20.4216C10.5354 20.0621 10.6312 19.1411 10.7691 18.9354C10.9822 18.6178 11.177 18.851 11.3638 18.867C11.5857 18.8859 11.8927 18.6726 12.0207 19.0614C12.173 19.5244 11.7331 19.6473 11.4892 19.9227Z" fill="white"/>
<path d="M14.2891 12.8244C14.2818 13.3264 13.9749 14.0676 13.4592 13.5203C12.7381 12.7547 13.3612 11.4425 12.982 10.5655C12.8654 10.2962 12.5308 10.0873 12.6505 9.73099C12.7451 9.44984 13.1194 9.66994 13.2211 9.60993C13.278 9.57666 13.2537 9.34242 13.5221 9.35604C14.0646 9.38329 13.7918 9.98462 13.7657 10.2548C13.6814 11.1241 14.3024 11.8989 14.2891 12.8244Z" fill="white"/>
<path d="M12.9745 23.9904C12.7406 24.2999 12.4415 23.6357 12.1319 23.8694L10.1396 25.5678L9.87564 25.5741C9.7142 25.4171 9.89781 25.2287 9.91033 25.0844C9.92806 24.8787 9.79218 24.7537 9.9724 24.5399C10.1252 24.3583 10.5986 24.3594 10.8594 24.2428C11.2485 24.0685 11.6776 23.6223 11.9827 23.3236C12.0093 23.1559 11.9068 23.2612 11.8192 23.2919C11.6144 23.3632 11.3844 23.4821 11.193 23.5872C10.9048 23.7455 10.2796 24.2692 10.0968 24.3355C10.0462 24.3539 9.99718 24.3512 9.94528 24.3476C10.2788 23.7565 10.8917 23.365 11.5046 23.108C11.6233 23.0582 11.8536 23.0448 11.9185 22.9953C12.0748 22.8771 12.1097 21.6915 12.8222 22.1189C13.1104 22.5087 12.6845 22.8347 12.6997 23.1255C12.7166 23.4447 13.227 23.6558 12.9745 23.9904Z" fill="white"/>
<path d="M20.9274 0.998607C20.9121 1.15975 20.6038 1.2918 20.5469 1.68011C20.4082 2.62599 20.2932 3.56297 20.1432 4.51042C20.114 4.69462 20.1651 4.88537 20.1062 5.06773C20.0433 5.26293 19.7773 5.40285 19.6255 5.24512C19.4938 5.10861 19.5642 4.90266 19.1772 4.87069C19.0264 4.43417 19.3193 4.50728 19.5384 4.365C20.0224 4.05084 20.0245 2.53272 20.0037 1.99218C20.0005 1.912 20.0532 1.7464 19.9387 1.76186C19.7483 2.5618 19.5293 3.37667 19.5431 4.20543H19.3464C19.3597 3.60384 19.4354 2.99832 19.5626 2.40852C19.6239 2.12528 19.9205 1.3801 19.9239 1.18778C19.927 1.0235 19.5178 0.67685 19.8028 0.405925C20.1161 0.108535 20.1489 0.575712 20.3099 0.628377C20.4877 0.686283 20.966 0.590385 20.9274 0.998607Z" fill="white"/>
<path d="M5.67193 13.2531C5.69462 13.9388 5.38948 13.5906 5.10128 13.6977C4.91924 13.7656 2.81949 15.0767 2.7329 15.1868C2.62545 15.3235 2.66457 15.6136 2.53704 15.7029C2.32422 15.8518 2.22198 15.5567 2.11479 15.4729C1.96457 15.3552 1.65186 15.3343 1.73714 15.0183C1.81565 14.7277 2.17217 14.8003 2.37325 14.7275C2.51461 14.6761 2.64736 14.6109 2.78063 14.5422C2.97024 14.4445 4.28053 13.6362 4.3559 13.5489C4.40989 13.4863 4.48213 13.377 4.39033 13.3196C3.71536 13.5958 3.15097 14.1547 2.55086 14.5095C2.48905 14.5461 2.37116 14.636 2.31979 14.5414C2.67683 14.0161 3.30746 13.621 3.85307 13.3081C4.04815 13.1962 4.27922 13.1501 4.44249 13.0581C4.50326 13.0238 4.50795 12.8973 4.59558 12.8679C5.0752 12.7078 5.21317 13.1525 5.67193 13.2531Z" fill="white"/>
<path d="M9.52101 11.4747C9.30036 11.6199 9.22238 11.3995 8.99913 11.4058C8.81657 11.4108 6.81358 12.4358 6.57077 12.6033C6.14226 12.8988 6.20277 13.3691 5.67229 13.2528C5.66811 13.1249 5.57579 12.9499 5.60161 12.795C5.28577 12.8771 5.07295 12.4361 5.30507 12.2561C5.40757 12.1764 5.88198 12.1785 6.09558 12.1261C6.55799 12.0121 8.39354 11.1113 8.72007 10.8001C8.89403 10.6342 8.90446 10.3358 9.09198 10.2496C9.63576 9.99907 9.37443 10.5627 9.4292 10.7618C9.47067 10.913 9.96594 11.1818 9.52101 11.4747Z" fill="white"/>
<path d="M19.6748 5.75055C19.6323 6.21904 19.336 5.97798 19.1193 5.99003C18.9659 5.99868 16.8012 7.57105 16.6181 7.77149C16.4319 7.97586 16.3461 8.46112 16.0892 8.4999C15.7131 8.55675 15.818 8.24312 15.6967 8.1032C15.6234 8.01857 15.4531 8.04818 15.4106 7.9287C15.1772 7.27497 15.9226 7.42956 16.2937 7.31348C17.0406 7.08003 17.9488 6.05868 18.6287 5.6295L18.7054 4.94825C18.7979 4.85498 19.0441 4.85288 19.1336 4.94773C19.2257 5.04494 19.1829 5.26477 19.227 5.31613C19.3016 5.40312 19.7142 5.31272 19.6748 5.75055Z" fill="white"/>
<path d="M16.7502 13.8485C15.7839 14.3691 14.7569 13.5857 14.416 12.6587C14.9199 12.6778 15.1356 13.1282 15.6616 13.2228C16.1316 13.3074 16.9526 13.0687 16.7502 13.8485Z" fill="white"/>
<path d="M16.4879 12.659C15.7234 12.9815 14.9416 12.6836 14.3503 12.1622C14.331 12.0705 14.4207 12.0068 14.5068 12.0016C14.8745 11.9791 15.4235 12.2419 15.8951 12.196C16.1793 12.1685 16.6206 11.8025 16.8384 11.9416C17.1073 12.1132 16.7351 12.5545 16.4879 12.659Z" fill="white"/>
<path d="M12.3779 9.55518C11.8756 10.0506 10.9292 9.78051 10.4709 10.4455C10.3556 10.6129 10.3799 10.9061 10.111 10.8799C9.82881 10.8522 9.96678 10.5068 10.0771 10.3475C9.76465 10.4688 9.33589 10.4004 9.64494 10.0116C9.97382 9.59762 11.83 9.60129 12.3779 9.55518Z" fill="white"/>
<path d="M12.8378 12.3949L11.8843 13.847C11.5192 14.1347 11.0612 14.5369 10.5657 14.3144C10.2634 13.8857 11.3912 13.5755 11.6509 13.3483C11.8204 13.2 12.5674 12.1575 12.8378 12.3949Z" fill="white"/>
<path d="M12.3548 12.1733C11.9628 12.5897 10.8909 13.3671 10.3155 13.0466C10.0918 12.9216 10.1137 12.8504 10.2722 12.6895C10.5508 12.4073 11.1352 12.406 11.5087 12.281C12.0074 12.1141 12.3869 11.785 12.7397 11.4043C12.8414 11.6362 12.5115 12.0064 12.3548 12.1733Z" fill="white"/>
<path d="M16.3443 11.5251C15.9213 11.8023 15.2729 11.7821 14.8121 11.633C14.7419 11.6105 14.0865 11.3186 14.2187 11.2059C14.7675 11.3252 15.1788 11.2395 15.7001 11.076C15.9539 10.9966 16.2322 10.7026 16.4898 10.8711C16.7999 11.0739 16.5762 11.3731 16.3443 11.5251Z" fill="white"/>
<path d="M12.6274 13.867C12.4106 14.2666 12.4099 14.7539 12.0192 15.1051C11.527 15.5473 10.7673 15.2767 11.1935 14.8035C11.3252 14.6573 11.7388 14.4925 11.9485 14.3077C12.1037 14.171 12.8011 13.1504 12.9693 13.3197C12.9972 13.5767 12.74 13.6595 12.6274 13.867Z" fill="white"/>
<path d="M12.706 10.7437C12.6116 11.3159 11.4007 11.9874 10.8931 12.0582C10.6143 12.097 9.91693 12.0123 10.2036 11.6308C10.3593 11.4233 11.3592 11.4411 11.735 11.3196C12.1442 11.187 12.3289 10.887 12.706 10.7437Z" fill="white"/>
<path d="M15.1393 33.4626L15.7947 34.0898C15.6802 34.2774 15.4353 34.0796 15.2924 34.0015C15.0003 33.8414 14.8016 33.5991 14.5481 33.396C14.4771 33.473 15.2121 34.3034 15.282 34.4755C15.3138 34.5541 15.3448 34.6348 15.2363 34.6511C14.8151 34.4897 14.1957 33.7429 14.1516 33.2975C14.142 33.2003 14.1138 33.1039 14.2507 33.1324L14.481 33.33L14.3493 33.0339L14.54 32.927C14.4962 32.7908 14.4333 32.7004 14.5799 32.605L15.928 33.4956C15.8192 33.8805 15.3933 33.4248 15.1393 33.4626Z" fill="white"/>
<path d="M16.0481 9.8645C15.9766 10.8748 14.9183 10.9534 14.1205 10.8083C14.0063 10.7876 13.9358 10.7402 13.9554 10.6118C14.4621 10.5651 14.8304 10.4582 15.2354 10.1475C15.442 9.98922 15.6413 9.57602 15.9271 9.71829L16.0481 9.8645Z" fill="white"/>
<path d="M15.5684 8.69755C15.4281 8.92682 14.9957 8.68393 14.731 8.71039C14.2738 8.75598 13.9973 9.15058 13.5615 9.15765C13.4533 9.07617 14.6658 8.05875 14.8741 8.00085C15.0085 7.96364 15.1415 7.93718 15.2755 7.99823C15.2695 8.31815 15.7317 8.43003 15.5684 8.69755Z" fill="white"/>
<path d="M11.5907 10.844C11.3288 10.964 10.2092 11.3222 10.5042 10.7431C11.0699 10.3682 11.8223 10.3126 12.4433 10.0171C12.6266 10.2133 11.7454 10.773 11.5907 10.844Z" fill="white"/>
<path d="M15.6646 9.38914C15.3269 9.86653 14.3681 10.2069 13.9561 9.68731C14.2377 9.60661 14.5358 9.56443 14.8094 9.45464C15.066 9.35167 15.4445 9.00659 15.5806 8.97253C15.8925 8.89419 15.7872 9.21594 15.6646 9.38914Z" fill="white"/>
<path d="M15.1967 15.6898C14.8812 15.9243 13.8106 15.6327 14.0956 15.1768C14.1971 15.0146 15.5225 15.0979 15.1967 15.6898Z" fill="white"/>
<path d="M15.1887 16.4729C14.8901 16.7265 13.9585 16.3681 14.2472 15.9559C14.3925 15.7484 15.6042 15.9072 15.1887 16.4729Z" fill="white"/>
<path d="M18.5224 1.17118C18.3227 1.2021 17.8759 1.20708 18.1628 0.935892C18.2765 0.828465 19.4647 0.427317 19.5432 0.50697C19.6397 0.90183 18.8292 1.12323 18.5224 1.17118Z" fill="white"/>
<path d="M14.9122 14.8369C14.7706 15.1267 13.8239 14.9532 13.8213 14.6066C13.8195 14.3359 14.7404 14.4226 14.8588 14.524C14.9271 14.5827 14.9558 14.7481 14.9122 14.8369Z" fill="white"/>
<path d="M14.7114 35.0456C14.4641 35.0315 13.6222 33.6153 13.6926 33.2642C13.8288 33.2343 13.8421 33.3347 13.9044 33.4141C14.2163 33.8123 14.425 34.4587 14.7557 34.8717C14.8467 34.9293 14.7479 35.0477 14.7114 35.0456Z" fill="white"/>
<path d="M15.0695 17.1119C14.8155 17.2678 14.3194 17.1756 14.1596 16.9057C14.1267 16.7943 14.2292 16.6547 14.3304 16.6314C14.5367 16.5839 15.599 16.787 15.0695 17.1119Z" fill="white"/>
<path d="M2.54976 17.083L2.38493 16.2911L2.31999 16.8534L2.1888 16.9512C2.19532 16.6077 2.07718 16.2746 2.12282 15.9262C2.13455 15.8352 2.17159 15.7189 2.25374 15.8289L2.25479 16.1583L2.41857 15.8297C2.56254 15.831 2.78005 16.9307 2.54976 17.083Z" fill="white"/>
<path d="M12.7285 8.09271C12.6419 8.10084 12.6242 8.05734 12.5762 7.99917C12.6158 7.51732 13.0777 7.3968 13.4958 7.44186C13.6622 7.72903 12.885 8.0783 12.7285 8.09271Z" fill="white"/>
<path d="M14.5408 14.1355C14.3449 14.4866 13.9107 14.2133 13.6979 14.0063C13.6319 13.7977 13.9305 13.7422 14.0737 13.7285C14.3627 13.7013 14.4326 13.9038 14.5408 14.1355Z" fill="white"/>
<path d="M13.5948 8.82934C12.526 9.71522 12.2303 8.63309 13.5541 8.63624L13.5948 8.82934Z" fill="white"/>
<path d="M12.6406 8.56345C12.6414 8.16885 13.1586 7.99225 13.4948 8.03575C13.6919 8.22649 12.7575 8.7293 12.6406 8.56345Z" fill="white"/>
<path d="M17.4405 2.2894C17.2676 2.03315 18.0633 1.25575 18.1629 1.36553C18.2887 1.50414 17.5375 2.40574 17.4405 2.2894Z" fill="white"/>
<path d="M18.5909 2.42495C18.5411 2.51692 18.5967 2.58766 18.4266 2.5536C18.418 2.19044 18.4699 1.54536 18.8859 1.43164C18.9524 1.50605 18.6598 2.29787 18.5909 2.42495Z" fill="white"/>
<path d="M12.0832 24.4803C12.0772 24.5996 12.0073 25.4695 11.8847 25.4695C11.6338 25.3282 11.8886 24.2204 12.0162 24.2173C12.1651 24.3124 12.0887 24.3677 12.0832 24.4803Z" fill="white"/>
<path d="M18.1772 2.20534C18.1151 2.28316 18.1026 2.38613 17.9657 2.35548C17.8562 2.22552 18.2315 1.32496 18.5567 1.4316C18.6467 1.52017 18.2575 2.1042 18.1772 2.20534Z" fill="white"/>
<path d="M12.3771 25.3385C12.1507 25.5819 12.066 24.3053 12.3445 24.2173C12.5398 24.2115 12.4063 25.1849 12.3771 25.3385Z" fill="white"/>
<path d="M12.8379 25.4044C12.5782 25.3918 12.5529 24.7525 12.5409 24.5465C12.5341 24.4318 12.4606 24.3781 12.6082 24.2832C12.7542 24.2874 12.8932 25.2453 12.8379 25.4044Z" fill="white"/>
<path d="M19.051 2.22676C19.0012 2.31872 19.0565 2.38947 18.8864 2.35541C18.8447 1.99356 18.9055 1.77687 19.1105 1.48944C19.1655 1.41241 19.1118 1.32699 19.2803 1.36551C19.359 1.46848 19.1238 2.09182 19.051 2.22676Z" fill="white"/>
<path d="M17.6689 3.21444C17.4642 3.25374 17.2573 2.57957 17.3087 2.42236L17.4965 2.4318C17.4975 2.53844 17.9028 3.16937 17.6689 3.21444Z" fill="white"/>
<path d="M13.1994 25.2711C13.033 25.264 12.8369 24.4549 12.9042 24.2817C12.9986 24.2977 13.0307 24.4038 13.0709 24.4772C13.1155 24.5592 13.4063 25.28 13.1994 25.2711Z" fill="white"/>
<path d="M17.9659 0.969893L17.9364 1.1706C17.0768 1.37157 16.9696 0.687177 17.9659 0.969893Z" fill="white"/>
<path d="M1.85971 16.6869C1.90405 16.3795 1.75173 15.9535 1.95803 15.6978C2.07148 15.6978 2.19484 16.7196 1.85971 16.6869Z" fill="white"/>
<path d="M1.66193 14.9694C1.37192 15.0129 0.991921 14.8468 1.00522 14.508C1.10146 14.4116 1.78243 14.8638 1.66193 14.9694Z" fill="white"/>
<path d="M17.9342 2.55434C18.0891 2.52237 18.22 2.86587 18.2258 2.98981C18.2529 3.58983 17.5654 2.63032 17.9342 2.55434Z" fill="white"/>
<path d="M1.53125 16.4885C1.61601 16.2147 1.57898 15.928 1.65357 15.6513C1.68408 15.5382 1.6061 15.4674 1.79362 15.4986C1.86091 15.5649 1.74224 16.7167 1.53125 16.4885Z" fill="white"/>
<path d="M16.6162 0.706005L16.6848 0.506348L17.0791 0.769675C17.129 1.14488 16.7414 0.870813 16.6162 0.706005Z" fill="white"/>
<path d="M15.0391 35.4443L15.1077 35.2446C15.7166 35.477 15.5664 36.0019 15.0391 35.4443Z" fill="white"/>
<path d="M1.92545 16.82C1.94397 17.0039 1.31908 17.3307 1.26848 17.2811C1.24214 17.0686 1.79948 16.7249 1.92545 16.82Z" fill="white"/>
<path d="M15.9279 35.179C15.7007 35.2073 15.4579 35.1651 15.4681 34.8831C15.5343 34.6219 16.064 35.0464 15.9279 35.179Z" fill="white"/>
<path d="M2.3201 17.8095C2.27081 17.668 2.50944 17.2197 2.61559 17.2168C2.83597 17.2106 2.56004 17.8758 2.3201 17.8095Z" fill="white"/>
<path d="M1.72887 17.6117C1.61959 17.4734 2.13938 16.969 2.25387 17.0837C2.39914 17.2294 1.82432 17.5748 1.72887 17.6117Z" fill="white"/>
<path d="M16.3867 34.6178C16.389 34.8363 15.5873 34.6553 15.9603 34.3223L16.3867 34.6178Z" fill="white"/>
<path d="M0.940561 16.8523C0.996634 16.741 1.45826 16.4818 1.5305 16.5554C1.71046 16.7394 0.928824 17.0708 0.940561 16.8523Z" fill="white"/>
<path d="M11.8845 26.1962C11.6785 26.0112 11.6083 25.6266 11.9828 25.6693C11.9698 25.8467 12.0491 26.0673 11.8845 26.1962Z" fill="white"/>
<path d="M0.873016 14.4415C0.621338 14.5133 0.565265 14.1761 0.544922 13.9796C0.843284 13.9497 0.905356 14.1895 0.873016 14.4415Z" fill="white"/>
<path d="M13.3562 25.9559L13.1674 26.0652L13.0352 25.6035L13.2897 25.6116L13.3562 25.9559Z" fill="white"/>
</g>
<defs>
<clipPath id="clip0_637_1679">
<rect width="20.3846" height="35.3846" fill="white" transform="translate(0.544922 0.307617)"/>
</clipPath>
</defs>
</svg>
